<svg width="1206" height="341" viewBox="0 0 1206 341" fill="none" xmlns="http://www.w3.org/2000/svg">
<g clip-path="url(#clip0_91_2)">
<g style="mix-blend-mode:multiply">
<g style="mix-blend-mode:multiply">
<path d="M908.491 130C910.289 130.865 912.352 132.792 914.554 135.657C914.669 136.02 914.901 136.334 915.215 136.55C915.529 136.767 915.905 136.872 916.286 136.851C917.997 137.801 919.413 139.204 920.377 140.905C921.34 142.607 921.814 144.541 921.747 146.495C921.806 148.813 921.257 151.107 920.154 153.148C918.348 156.475 916.022 158.402 913.622 159.267V159.465L924.631 162.924H924.77L924.969 162.792C927.963 159.934 929.769 158.468 930.363 158.468C931.163 158.468 931.633 158.93 931.831 159.934L931.295 161.26C930.165 161.26 929.093 161.993 928.169 163.459C931.031 164.719 932.492 165.987 932.433 167.247C932.433 168.119 931.963 168.581 931.295 168.581H930.833C929.563 167.181 928.837 166.448 928.631 166.448H928.425C929.319 167.637 929.789 169.089 929.761 170.574C929.761 171.241 929.292 171.636 928.425 171.776H927.956C927.625 171.776 927.222 170.64 926.825 168.449C925.424 167.049 924.763 166.119 924.763 165.789L913.431 162.125H913.299C914.066 166.186 914.491 170.304 914.568 174.436C919.015 176.913 923.33 179.621 927.493 182.547H927.626C929.093 180.554 930.752 179.558 932.624 179.558C933.688 179.558 934.224 180.151 934.224 181.353L933.688 183.346C932.484 186.336 930.825 187.867 928.756 187.867H928.293C927.097 187.867 925.893 187.135 924.624 185.669V185.332C924.595 185.079 924.661 184.824 924.809 184.616C924.956 184.408 925.175 184.261 925.424 184.204C921.44 181.263 917.231 178.639 912.836 176.356L911.838 176.89C910.082 176.321 908.276 175.919 906.444 175.689C907.256 177.937 907.75 180.287 907.911 182.672V182.87C907.911 184.006 907.442 184.673 906.583 184.87L896.865 183.016L897.056 185.537C897.394 189.399 896.396 191.326 894.994 191.326H894.524C893.056 191.326 892.065 190.132 891.588 187.662V185.691C892.322 181.5 893.526 179.367 895.317 179.367H895.787C896.19 179.638 896.388 179.902 896.388 180.232L905.497 182.027L905.291 181.236C904.491 178.107 904.029 176.575 903.559 176.575V175.366H902.891C901.497 175.234 900.829 174.699 900.829 173.769L905.966 162.462L904.499 162.264L893.974 162.125L891.911 162.462V162.594L892.109 162.792V163.122C892.109 164.191 890.641 164.851 887.647 165.122L886.979 164.924H884.579C883.449 164.924 882.847 164.389 882.847 163.591C883.118 162.726 883.515 162.264 884.109 162.264L885.041 162.462H887.911L890.179 162.125V161.927L885.577 160.601H885.379L885.247 160.791C884.929 160.744 884.639 160.583 884.43 160.34C884.222 160.096 884.108 159.786 884.109 159.465V158.93C884.109 158.6 884.579 158.337 885.577 158.131C886.612 158.158 887.632 158.387 888.579 158.805H888.711L888.447 158.271L884.579 155.274V154.284C884.664 154.062 884.822 153.874 885.027 153.752C885.232 153.629 885.473 153.58 885.709 153.61C887.779 154.211 890.179 156.209 892.909 159.604L906.899 159.802L908.367 159.604V159.465L907.897 159.267C902.7 157.069 900.366 153.405 900.366 149.616C900.472 147.62 901.067 145.68 902.099 143.967C902.099 143.769 901.24 143.109 899.434 141.974C898.238 141.842 897.636 141.373 897.636 140.64C897.615 140.46 897.635 140.277 897.694 140.106C897.754 139.935 897.852 139.78 897.98 139.652C898.109 139.524 898.265 139.427 898.437 139.369C898.609 139.31 898.792 139.291 898.972 139.314C899.838 139.314 901.1 139.914 902.766 141.175C902.172 140.315 901.426 139.57 900.565 138.977C898.759 138.581 897.827 138.053 897.827 137.32C897.822 137.046 897.894 136.775 898.035 136.539C898.177 136.303 898.382 136.112 898.627 135.987H899.559C900.829 135.987 902.693 137.254 905.027 139.841L905.827 138.647L904.829 137.65C902.363 136.522 901.093 135.855 901.027 135.518V134.983C900.999 134.73 901.065 134.475 901.212 134.267C901.36 134.059 901.578 133.912 901.827 133.854C903.053 133.962 904.238 134.348 905.291 134.983C906.825 135.987 907.559 136.654 907.559 136.983C908.822 137.848 909.489 138.515 909.489 138.977C908.961 140.178 908.425 140.838 907.889 140.977L907.229 140.838L905.497 142.97L905.629 143.835V144.296L905.027 144.971C904.029 144.971 903.229 146.495 902.759 149.492C902.785 150.475 903.06 151.436 903.559 152.284C905.962 155.742 908.359 157.472 910.752 157.472L912.154 157.274V157.113H910.077C907.542 156.316 906.275 155.317 906.275 154.116V153.815C906.612 153.214 906.943 152.951 907.346 152.951H907.677C908.946 154.079 910.011 154.614 910.737 154.614L913.937 154.475C914.473 154.944 914.737 155.274 914.737 155.611H914.869C917.871 153.148 919.339 150.151 919.339 146.627C919.369 145.339 919.109 144.06 918.578 142.886C918.047 141.711 917.258 140.671 916.271 139.841L915.339 140.31L914.737 140.178C913.243 137.943 911.574 135.828 909.746 133.854C908.685 133.269 907.717 132.528 906.877 131.656V131.194C906.877 130.396 907.273 130 908.007 130H908.491ZM931.479 182.342C930.811 182.342 929.945 183.28 928.947 185.207C930.011 185.207 930.877 184.277 931.479 182.342ZM914.216 147.631C915.618 147.631 916.418 148.158 916.616 149.155C916.581 149.655 916.37 150.127 916.022 150.488L913.284 150.291L912.484 149.492V149.155C912.484 148.319 913.086 147.828 914.216 147.631ZM904.205 131.524C905.339 131.456 906.457 131.814 907.339 132.528C910.003 134.455 911.662 136.456 912.33 138.647C912.264 139.511 911.867 139.98 911.2 139.98L910.4 139.841C909.472 137.931 908.158 136.235 906.539 134.858C904.533 134.126 903.532 133.459 903.537 132.858C903.551 132.602 903.617 132.351 903.732 132.122C903.847 131.892 904.008 131.689 904.205 131.524ZM912.132 174.099C911.959 169.445 911.38 164.816 910.4 160.264C910.4 159.993 909.798 159.802 908.667 159.604H908.469V159.802C908.8 159.802 909.071 160.066 909.269 160.601L904.007 172.904C907.933 173.234 910.532 173.769 911.801 174.436L912.132 174.099ZM907.339 147.631C909.13 147.96 910.069 148.627 910.069 149.616V149.954C909.739 150.554 909.401 150.826 908.939 150.826L907.339 150.291H907.207L906.407 150.95H905.805L905.005 150.151V149.616C905.335 148.29 906.069 147.631 907.207 147.631H907.339ZM894.282 188.534H894.473L894.612 186.336L894.473 184.013H894.282L893.812 186.673L894.282 188.534Z" fill="#00041B"/>
</g>
<g style="mix-blend-mode:multiply">
<path d="M569.712 224.528C569.712 224.528 575.041 224.411 575.767 224.404V221.626C573.698 221.626 571.621 221.67 569.543 221.722C568.636 213.522 566.596 205.488 563.481 197.848C554.571 175.242 539.26 160.388 521.499 157.098C507.37 154.482 492.14 159.831 480.625 171.409C478.489 170.744 476.254 170.454 474.019 170.552C465.63 170.823 456.727 175.564 450.217 183.229C444.015 190.505 440.345 199.76 439.611 210.012C439.307 214.108 439.413 218.225 439.927 222.301H439.795C437.153 222.301 434.4 222.198 431.604 222.008C429.219 221.846 426.796 221.868 424.462 221.883H422.18H414.972V224.616H415.912C421.563 224.616 427.398 224.543 433.116 224.843C435.67 224.983 438.048 225.019 440.338 225.034C442.753 239.418 450.188 253.891 460.779 264.809C467.113 271.426 474.716 276.701 483.135 280.322C491.554 283.943 500.618 285.834 509.785 285.884C511.326 285.884 512.875 285.825 514.416 285.723C523.903 285.16 533.117 282.339 541.289 277.494C549.461 272.65 556.353 265.924 561.389 257.877C566.477 249.798 569.392 240.545 569.852 231.013L569.712 224.528ZM474.57 178.656C467.142 189.326 463.56 203.065 464.177 218.41C460.518 219.834 456.709 220.838 452.822 221.399C449.49 221.881 446.133 222.167 442.767 222.257C441.417 212.078 441.945 197.635 451.817 185.618C457.96 178.187 466.254 173.578 474.056 173.322H474.694C475.96 173.317 477.223 173.452 478.46 173.725C477.067 175.291 475.768 176.938 474.57 178.656ZM517.917 218.468C519.605 217.794 522.049 217.552 523.869 218.923C524.537 219.477 525.078 220.167 525.458 220.947C525.837 221.726 526.046 222.577 526.071 223.444C526.394 228.024 522.666 230.933 519.385 232.032C516.538 232.976 513.477 233.07 510.577 232.303C510.636 231.482 510.724 230.676 510.856 229.878C511.605 225.679 513.381 220.285 517.917 218.468ZM522.145 233.857C526.38 231.834 528.963 227.994 528.882 223.796C528.802 219.326 525.8 215.735 521.756 215.2C516.317 214.541 512.258 218.571 510.416 222.242C509.028 225.098 508.185 228.187 507.928 231.35C503.967 229.612 500.622 226.725 498.328 223.063C496.121 219.599 495.054 215.533 495.274 211.434C495.594 207.366 497.073 203.476 499.539 200.222C502.005 196.858 505.284 194.173 509.069 192.415C512.855 190.657 517.025 189.884 521.19 190.168C529.616 190.813 537.983 195.781 543.026 203.153C546.989 209.194 548.951 216.325 548.633 223.539C547.869 223.718 547.13 223.989 546.431 224.345C545.534 224.88 544.732 225.561 544.06 226.36L543.73 226.705C542.482 228.009 541.308 229.409 540.171 230.764L539.07 232.076C536.134 235.505 532.824 238.883 528.258 240.356C523.972 241.741 519.341 241.741 514.864 241.741H511.656C511.024 239.596 510.661 237.381 510.577 235.146C514.467 236.008 518.533 235.565 522.145 233.886V233.857ZM511.539 248.446C512.009 249.347 512.493 250.278 512.904 251.223C514.218 254.206 514.218 256.148 512.904 257.335C511.348 258.742 508.61 258.324 506.805 258.068C502.599 257.423 497.733 256.177 497.418 252.257C497.4 251.172 497.661 250.101 498.175 249.146C498.688 248.19 499.439 247.382 500.353 246.797C502.607 245.222 505.491 244.826 507.693 244.665C508.368 244.614 509.036 244.577 509.704 244.555L509.792 244.79C510.311 246.038 510.894 247.258 511.539 248.446ZM557.969 222.271C556.141 222.411 553.785 222.616 551.422 223.004C551.548 217.153 550.333 211.351 547.87 206.04C545.871 201.883 543.031 198.183 539.53 195.176C536.028 192.168 531.94 189.916 527.524 188.564C523.24 187.242 518.696 186.995 514.293 187.845C509.89 188.695 505.766 190.615 502.284 193.437C494.944 199.299 491.333 208.092 492.838 216.453C493.619 220.455 495.402 224.195 498.02 227.325C500.637 230.455 504.005 232.873 507.81 234.355C507.81 235.307 507.877 236.238 507.972 237.139C508.135 238.713 508.419 240.271 508.823 241.8C505.829 241.924 502.46 242.335 499.524 244.042C495.854 246.167 493.337 250.857 495.399 255.034C497.249 258.786 501.931 260.009 505.3 260.603C508.001 261.079 514.328 262.193 516.251 257.239C517.565 253.854 515.715 250.403 514.049 247.362C513.565 246.453 513.102 245.603 512.75 244.79C512.706 244.694 512.662 244.592 512.625 244.489H514.6C517.426 244.542 520.254 244.441 523.069 244.189C528.508 243.602 532.868 241.844 536.398 238.81C538.507 236.9 540.453 234.819 542.218 232.589C543.481 231.072 544.794 229.511 546.204 228.097C546.825 227.4 547.592 226.847 548.45 226.477C548.296 227.885 548.071 229.284 547.774 230.669C545.888 239.36 541.015 247.523 533.697 254.286C526.982 260.611 518.737 265.088 509.77 267.279C504.141 268.583 493.366 269.843 484.507 263.615C476.617 258.06 472.977 248.373 470.459 239.623C468.622 233.297 467.47 226.792 467.025 220.22C472.232 217.933 476.99 214.737 481.072 210.781C488.14 203.835 491.957 195.151 491.546 186.951C491.304 182.166 489.616 177.953 486.797 175.095C485.783 174.071 484.617 173.208 483.34 172.538C486.677 169.296 490.449 166.534 494.548 164.331C502.504 160.051 511.333 158.351 519.414 159.531C528.222 160.813 537.103 165.393 544.369 172.516C550.857 178.869 556.281 187.362 560.516 197.782C563.726 205.447 565.839 213.526 566.791 221.78C563.547 221.912 560.67 222.066 557.976 222.271H557.969ZM488.786 189.765C488.251 197.416 483.766 205.249 476.485 211.25C473.576 213.65 470.369 215.664 466.944 217.244C466.869 214.735 466.921 212.223 467.098 209.719C467.832 199.35 470.768 189.787 475.671 182.064C477.337 179.427 479.241 176.947 481.359 174.655C483.05 175.403 484.539 176.541 485.704 177.975C487.979 180.884 489.08 185.068 488.786 189.765ZM457.19 223.473C459.637 222.958 462.042 222.257 464.382 221.377C464.825 227.115 465.791 232.8 467.267 238.363C469.681 247.486 473.19 257.708 480.94 264.355C487.473 269.96 496.691 272.21 506.886 270.701C515.744 269.389 524.611 265.344 532.53 258.976C540.604 252.55 546.365 244.518 549.286 235.754C550.364 232.529 551.049 229.185 551.327 225.796C552.993 225.496 554.703 225.312 556.721 225.136C559.965 224.858 563.327 224.653 566.997 224.521C567.099 226.199 567.129 227.774 567.099 229.313C566.784 246.849 557.103 263.93 541.837 273.888C526.306 284.022 505.139 285.92 486.606 278.834C470.137 272.533 456.213 259.013 448.441 241.734C446.019 236.395 444.273 230.775 443.244 225.005C447.918 224.889 452.571 224.364 457.153 223.436L457.19 223.473Z" fill="#00041B"/>
</g>
<g style="mix-blend-mode:multiply">
<path d="M370.458 208.752C369.841 208.114 369.24 207.469 368.63 206.832C364.469 202.435 359.882 197.174 357.995 191.084C360.327 189.422 362.402 187.428 364.153 185.164C367.346 181.082 370.495 175.388 367.375 171.409C366.674 170.514 365.729 169.84 364.654 169.468C363.578 169.097 362.418 169.043 361.313 169.314C359.419 169.87 357.841 171.512 356.623 174.106C354.384 179.016 353.765 184.51 354.854 189.795L354.304 190.073C353.811 190.318 353.306 190.538 352.792 190.733C350.913 172.245 334.538 160.997 324.901 155.911L324.608 155.757C321.224 153.977 317.4 151.961 313.356 151.859C311.609 151.818 309.881 152.228 308.338 153.048C306.795 153.868 305.49 155.071 304.549 156.541C302.624 159.558 301.795 163.143 302.2 166.698C293.503 161.649 286.112 160.161 280.226 162.301C278.568 162.843 277.044 163.729 275.754 164.901C274.463 166.073 273.436 167.505 272.739 169.101C272.452 169.82 272.259 170.574 272.167 171.343C271.146 171.658 270.09 172.01 268.945 172.428C261.847 174.985 256.511 178.715 252.629 183.837C248.174 189.699 246.06 196.712 246.831 203.08C247.726 210.569 252.401 215.867 259.029 216.922C261.743 217.296 264.498 217.271 267.205 216.849C268.744 218.703 270.552 220.316 272.57 221.634C272.035 221.766 271.506 221.89 270.978 221.993C266.856 222.68 262.676 222.952 258.5 222.806C254.434 222.806 200.195 222.733 196.114 222.711V225.481C197.898 225.481 251.968 225.525 253.781 225.569C260.211 225.715 266.875 225.877 273.187 224.338C274.115 224.108 275.031 223.832 275.932 223.51C276.948 224.002 277.992 224.435 279.059 224.807C283.595 226.318 288.316 227.21 293.092 227.459C292.56 229.048 292.275 230.709 292.248 232.384C292.248 232.596 292.248 232.801 292.248 233.014L289.76 233.248C288.46 233.373 287.169 233.49 285.877 233.637C284.661 232.568 283.314 231.658 281.87 230.925C274.581 227.262 264.475 228.229 257.282 233.256C251.454 237.337 248.665 243.214 249.443 249.802C250.405 257.972 255.998 264.648 260.511 268.81C271.861 279.156 286.5 285.176 301.855 285.811C302.919 285.854 304.057 285.884 305.202 285.884C309.753 285.884 314.912 285.422 319.36 283.414C320.035 283.539 320.718 283.649 321.4 283.737C328.982 284.751 336.689 284.303 344.102 282.418C352.278 280.337 359.104 276.46 363.86 271.206C368.895 265.637 371.786 258.617 371.83 251.883C374.911 250.803 377.701 249.031 379.985 246.702C384.822 241.573 385.937 233.871 382.987 226.016C382.81 225.562 382.612 225.085 382.385 224.55H414.943V221.795H381.005C378.245 216.937 374.289 212.804 370.458 208.752ZM357.775 179.316C358.26 177.198 359.03 174.553 360.711 172.86C360.988 172.569 361.32 172.335 361.687 172.172C362.055 172.01 362.452 171.923 362.854 171.915C363.665 171.939 364.434 172.285 364.99 172.875C366.01 173.93 366.062 175.703 365.137 178.129C364.064 180.718 362.516 183.084 360.572 185.105C359.573 186.215 358.48 187.238 357.305 188.161C357.261 187.853 357.225 187.538 357.188 187.23C356.96 184.578 357.159 181.906 357.775 179.316ZM271.264 216.167C275.932 215.325 280.468 214.225 284.284 213.236L285.532 212.914C283.143 216.343 279.782 218.982 275.881 220.491C274.32 219.67 272.862 218.669 271.535 217.508C271.117 217.135 270.706 216.776 270.31 216.314L271.264 216.167ZM281.238 172.538C284.255 172.479 286.376 173.058 287.785 174.333C288.545 174.96 289.063 175.83 289.253 176.795C289.253 177.433 288.827 178.063 287.873 178.664C285.685 179.972 283.1 180.455 280.585 180.027C277.847 179.514 275.506 177.015 274.904 173.945C274.87 173.79 274.845 173.633 274.831 173.476C276.925 172.923 279.074 172.609 281.238 172.538ZM289.422 180.965C291.771 179.433 292.563 177.184 291.558 174.941C291.026 173.808 290.25 172.807 289.286 172.008C288.322 171.208 287.193 170.631 285.98 170.317C282.963 169.445 279.411 169.497 275.139 170.501C275.848 168.535 277.235 166.885 279.051 165.847C285.657 161.912 294.589 165.488 300.93 169.182C301.562 169.548 302.178 169.914 302.787 170.325C303.388 172.585 304.296 174.753 305.488 176.766C308.351 181.602 312.769 185.632 318.619 188.747C320.535 193.113 321.467 197.846 321.349 202.611C321.349 202.97 321.349 203.344 321.298 203.688H321.217C318.538 203.707 315.863 203.87 313.202 204.179C305.723 204.992 298.523 206.736 290.545 208.788C292.27 202.926 290.978 197.284 286.993 193.466C284.395 190.971 280.969 189.518 277.367 189.383C273.765 189.247 270.24 190.44 267.462 192.733C261.745 197.46 261.473 205.33 263.748 211.053C264.195 212.167 264.733 213.243 265.356 214.269C264.357 214.357 263.425 214.401 262.515 214.401H262.456C258.251 214.401 254.999 213.148 252.783 210.679C250.824 208.315 249.663 205.394 249.465 202.332C248.893 196.023 251.315 189.274 256.115 183.808C259.932 179.477 265.003 176.429 272.174 174.208C272.419 175.723 272.987 177.168 273.84 178.444C274.673 179.718 275.793 180.78 277.111 181.543C278.429 182.307 279.908 182.751 281.429 182.841C284.224 183.055 287.016 182.399 289.422 180.965ZM315.918 224.36C317.1 222.933 318.165 221.414 319.103 219.817C320.315 220.525 321.482 221.308 322.597 222.161C322.509 222.499 322.428 222.836 322.355 223.173C320.231 223.68 318.083 224.076 315.918 224.36ZM328.439 208.693C326.171 211.931 324.462 215.524 323.382 219.326C322.426 218.627 321.434 217.979 320.41 217.384C322.103 213.952 323.24 210.274 323.778 206.487C325.712 206.596 327.632 206.871 329.518 207.308C329.144 207.755 328.784 208.217 328.439 208.693ZM342.458 225.752C342.246 227.411 341.875 229.045 341.349 230.632C340.878 230.574 340.409 230.488 339.947 230.376C335.691 229.335 332.079 226.478 329.114 223.986H329.195C333.736 222.308 337.956 219.867 341.672 216.768C342.626 219.662 342.895 222.737 342.458 225.752ZM340.417 214.167L339.749 214.738C335.886 217.938 331.451 220.377 326.678 221.927L325.738 221.15C327.36 215.442 329.555 211.192 332.439 208.165L332.953 208.349C336.001 209.44 338.617 211.479 340.417 214.167ZM324.681 225.4C325.151 225.268 325.621 225.137 326.09 224.99L326.413 225.268C328.886 227.484 331.573 229.448 334.435 231.131C336.263 232.155 338.246 232.873 340.307 233.256C340.058 233.827 339.786 234.384 339.522 234.89C339.1 235.46 338.745 236.078 338.465 236.729C336.863 239.292 334.863 241.584 332.542 243.522C330.071 245.58 327.214 247.124 324.138 248.065C321.892 240.276 323.213 231.915 324.681 225.4ZM337.834 242.196C338.263 244.5 339.311 246.645 340.865 248.402C343.801 251.802 348.498 253.715 354.81 254.096C351.559 258.8 345.841 263.248 338.891 262.347C333.151 261.614 327.786 257.071 325.085 250.71C330.041 249.102 334.453 246.155 337.834 242.196ZM335.39 206.377L334.795 206.114C336.922 204.522 339.479 203.606 342.135 203.483C344.075 203.454 346 203.82 347.793 204.56C346.432 207.376 344.631 209.959 342.458 212.21C340.668 209.669 338.227 207.654 335.39 206.377ZM352.696 251.077C348.241 250.491 344.916 248.915 342.81 246.394C340.703 243.874 339.94 240.532 340.96 238.019C341.298 237.469 341.621 236.912 341.878 236.414C343.573 234.179 346.656 232.713 350.127 232.501C350.421 232.501 350.722 232.501 351.023 232.501C354.018 232.536 356.948 233.382 359.5 234.948C359.654 235.036 359.801 235.132 359.948 235.227C359.948 235.667 359.911 236.106 359.889 236.546C359.845 237.718 359.801 238.927 359.662 240.063C359.253 244.011 358.163 247.859 356.439 251.436C355.14 251.341 353.885 251.231 352.66 251.07L352.696 251.077ZM316.63 218.615C316.175 219.348 315.698 220.08 315.213 220.813C314.189 222.246 313.045 223.589 311.793 224.829C306.995 225.168 302.18 225.202 297.378 224.931C297.884 224.126 298.456 223.363 299.088 222.652C301.249 220.283 304.082 218.627 307.209 217.904C310.336 217.182 313.609 217.427 316.593 218.607L316.63 218.615ZM355.713 222.139C354.645 224.394 353.035 226.349 351.025 227.83C349.015 229.31 346.669 230.271 344.197 230.625C344.841 228.48 345.226 226.266 345.342 224.03C345.556 220.863 345.031 217.69 343.808 214.76C344.739 213.834 345.617 212.856 346.436 211.829C347.914 209.981 349.17 207.967 350.179 205.828L350.582 206.084C356.175 209.799 358.304 216.548 355.676 222.132L355.713 222.139ZM304.952 232.86C307.958 231.506 310.717 229.661 313.114 227.401C316.017 227.151 318.902 226.722 321.753 226.118C321.621 226.778 321.496 227.437 321.378 228.09C320.41 233.468 319.389 241.397 321.503 248.739C320.075 249.002 318.625 249.134 317.173 249.135C316.008 248.434 314.779 247.845 313.503 247.376C311.073 246.454 308.444 246.184 305.877 246.592C303.017 245.303 300.473 243.408 298.42 241.038C296.998 239.397 295.969 237.455 295.411 235.359C298.682 234.976 301.882 234.133 304.916 232.853L304.952 232.86ZM316.307 184.13C313.972 182.554 311.874 180.655 310.075 178.488C308.758 176.88 307.646 175.115 306.765 173.234C310.302 176.101 313.351 179.521 315.793 183.361L316.307 184.13ZM303.096 227.76C304.945 227.76 306.677 227.76 308.365 227.679C305.715 229.598 302.727 231.005 299.558 231.827C298.071 232.199 296.564 232.486 295.044 232.684C295.04 232.645 295.04 232.606 295.044 232.567C295.06 230.873 295.389 229.196 296.013 227.621C298.413 227.723 300.813 227.753 303.096 227.76ZM359.478 251.429C360.513 249.077 361.288 246.62 361.79 244.101C362.208 241.832 362.478 239.538 362.597 237.235C366.262 240.532 368.554 245.082 369.019 249.985C365.908 250.9 362.685 251.385 359.441 251.429H359.478ZM374.847 221.942C370.443 222.308 362.663 223.847 360.711 230.068C360.5 230.754 360.34 231.454 360.234 232.164C357.98 230.926 355.508 230.134 352.953 229.834L353.027 229.775C358.649 225.378 361.005 218.307 358.898 212.24C357.499 208.456 354.83 205.274 351.346 203.234C352.457 200.148 353.021 196.892 353.012 193.612C353.925 193.306 354.815 192.936 355.676 192.506C358.106 199.592 363.317 205.051 368.359 210.342C371.794 213.94 375.331 217.67 377.9 221.824C376.887 221.832 375.838 221.861 374.81 221.942H374.847ZM350.017 196.895C349.813 198.644 349.414 200.364 348.828 202.025C347.559 201.501 346.231 201.135 344.872 200.933C340.263 200.2 335.617 201.71 331.764 205.066C329.254 204.351 326.671 203.926 324.065 203.798C324.123 202.772 324.145 201.761 324.123 200.772C324.018 197.279 323.392 193.821 322.266 190.513C322.677 190.689 323.096 190.865 323.514 191.026C332.395 194.543 340.535 195.825 347.735 194.851C348.579 194.741 349.408 194.594 350.208 194.411C350.164 195.254 350.105 196.097 350.017 196.895ZM330.296 190.366C327.009 189.472 323.815 188.27 320.755 186.776C317.288 179.443 311.914 173.172 305.195 168.617C304.392 165.33 304.799 161.863 306.34 158.849C307.119 157.316 308.387 156.085 309.945 155.351C311.502 154.617 313.261 154.422 314.942 154.797C318.685 155.53 322.23 157.523 325.65 159.48L326.127 159.751C334.017 164.25 339.815 169.226 343.859 174.971C347.374 179.863 349.517 185.602 350.069 191.597C344.637 193.019 338.157 192.579 330.296 190.366ZM265.605 200.398C266.1 198.76 266.954 197.252 268.106 195.984C269.257 194.717 270.677 193.721 272.262 193.07C273.75 192.439 275.35 192.113 276.967 192.11C278.813 192.106 280.632 192.551 282.266 193.407C283.769 194.183 285.086 195.275 286.128 196.607C287.169 197.938 287.91 199.479 288.299 201.123C288.867 203.982 288.533 206.947 287.345 209.609C283.029 210.73 279.11 211.727 274.985 212.606C272.82 213.075 270.581 213.551 268.379 213.896C265.407 209.616 264.379 204.589 265.605 200.398ZM289.297 211.961C296.078 210.076 302.952 208.545 309.892 207.374C313.566 206.787 317.277 206.463 320.997 206.407C320.487 209.791 319.454 213.077 317.936 216.145C313.659 214.29 308.829 214.154 304.453 215.764C300.075 217.396 296.455 220.585 294.288 224.719L293.224 224.646C289.554 224.382 284.218 223.825 279.315 222.015C283.63 219.811 287.127 216.288 289.297 211.961ZM282.369 258.419C280.852 259.097 279.197 259.405 277.538 259.318C275.879 259.231 274.264 258.752 272.827 257.921C271.465 257.212 270.298 256.181 269.428 254.918C268.558 253.654 268.012 252.197 267.836 250.674C267.139 243.537 274.875 238.847 280.248 237.433C281.78 237.038 283.333 236.732 284.901 236.517C286.223 237.82 287.308 239.342 288.108 241.016C291.242 247.56 288.673 255.371 282.369 258.419ZM275.271 236.311C269.818 238.869 263.902 244.453 265.194 251.795C266.324 258.192 273.136 262.999 279.726 262.054C286.317 261.109 291.69 255.129 292.204 248.087C292.434 243.734 291.014 239.454 288.226 236.099L290.332 235.886L292.578 235.667C293.606 240.188 296.916 244.46 301.716 247.464L302.237 247.779C299.482 249.286 297.339 251.704 296.174 254.616C292.842 262.589 297.151 270.664 301.855 275.134C305.367 278.387 309.588 280.78 314.186 282.125C313.606 282.257 313.011 282.374 312.395 282.476C308.623 283.066 304.798 283.233 300.989 282.975C293.277 282.533 285.714 280.675 278.677 277.493C271.666 274.39 265.329 269.952 260.02 264.428C257.018 261.226 250.273 252.836 252.497 244.167C254.434 236.634 262.508 232.332 269.194 231.534C270.027 231.432 270.865 231.38 271.704 231.38C275.323 231.349 278.88 232.32 281.98 234.186C279.663 234.612 277.41 235.326 275.271 236.311ZM316.432 279.941C311.705 278.666 303.22 275.302 299.316 267.066C298.462 265.376 297.958 263.533 297.831 261.645C297.705 259.756 297.961 257.862 298.582 256.074C299.134 254.502 300.054 253.083 301.266 251.936C302.477 250.789 303.945 249.947 305.547 249.479C308.983 250.954 312.664 251.777 316.402 251.905C319.228 253.876 321.578 256.452 323.279 259.445C326.582 265.307 327.529 273.449 322.222 278.344C321.243 279.227 320.144 279.967 318.956 280.542C318.09 280.359 317.246 280.161 316.432 279.941ZM327.639 262.486C326.259 258.346 323.829 254.633 320.586 251.707C321.173 251.634 321.775 251.531 322.391 251.407C322.604 251.934 322.839 252.447 323.074 252.945C326.391 259.768 332.483 264.435 338.979 265.124C345.694 265.857 352.843 262.047 357.239 255.474C357.526 255.041 357.79 254.602 358.047 254.155C359.236 254.155 360.469 254.074 361.812 253.971C364.253 253.791 366.673 253.389 369.041 252.77C368.741 259.365 365.54 265.96 360.234 271.008C355.096 275.881 347.757 279.223 339.059 280.681C333.798 281.598 328.434 281.771 323.125 281.194C329.408 276.321 329.577 268.334 327.639 262.486ZM362.935 232.779C363.236 230.171 364.462 228.383 367.03 226.8C369.599 225.217 372.865 224.829 375.449 224.66C376.755 224.572 378.084 224.572 379.368 224.58C380.318 226.511 381.018 228.554 381.453 230.662C382.34 234.436 381.872 238.401 380.132 241.866C378.528 244.653 376.114 246.889 373.21 248.278C372.719 248.527 372.197 248.769 371.654 249.01C371.269 246.034 370.292 243.164 368.779 240.571C367.266 237.977 365.249 235.712 362.847 233.908L362.795 233.871L362.935 232.779Z" fill="#00041B"/>
</g>
<g style="mix-blend-mode:multiply">
<path d="M745.553 220.513H745.465L745.238 219.362V218.827C738.148 219.084 731.351 222.125 724.43 224.133L722.646 224.646C722.646 224.55 722.646 224.448 722.646 224.352C724.65 208.605 715.879 193.041 701.787 187.347C695.482 184.797 688.43 184.797 682.125 187.347C680.608 187.956 679.137 188.671 677.721 189.487C677.259 184.565 675.508 179.852 672.642 175.821C668.284 169.938 662.325 165.429 655.475 162.828C648.533 160.133 641.014 159.267 633.64 160.315C625.698 161.385 618.961 164.411 614.102 169.057C608.927 174.069 605.676 180.732 604.913 187.889C604.245 195.016 606.225 202.138 610.476 207.902C614.601 213.654 620.157 217.985 624.832 221.194C622.029 221.341 619.122 221.407 616.194 221.407C612.083 221.407 607.973 221.407 603.863 221.465L597.705 221.509L575.687 221.634V224.389L611.049 224.191H614.153C616.7 224.191 619.291 224.191 621.918 224.103C624.179 224.03 626.447 223.905 628.649 223.744C633.185 226.675 637.919 229.467 642.491 232.164C644.436 233.322 646.389 234.472 648.319 235.63L667.827 247.354C661.222 246.746 655.313 246.453 649.765 246.468C640.595 246.507 631.439 247.193 622.366 248.519L621.331 248.673C617.292 249.165 613.299 249.979 609.39 251.106C605.25 252.425 602.234 254.543 600.428 257.415C599.469 258.881 598.924 260.577 598.85 262.326C598.777 264.075 599.177 265.811 600.01 267.352C601.823 270.693 605.28 272.921 607.716 274.306C614.973 278.353 622.708 281.479 630.741 283.612C638.883 285.835 647.258 287.094 655.695 287.364C657.038 287.401 658.374 287.423 659.695 287.415C662.69 287.415 665.567 287.254 668.378 286.976C672.387 286.689 676.327 285.779 680.055 284.279C686.404 281.568 692.591 275.332 692.099 267.52C691.63 260.002 685.185 254.909 680.356 251.736L679.996 251.495C683.638 251.911 687.304 252.092 690.969 252.037C699.586 251.795 707.05 249.003 712.562 243.976C717.26 239.611 720.548 233.948 722.008 227.709L724.452 226.976C731.85 224.814 738.551 221.795 745.546 221.575L745.553 220.513ZM654.139 284.543C645.535 284.127 637.015 282.65 628.774 280.146C624.628 278.899 620.565 277.389 616.612 275.625C613.228 274.115 609.397 272.401 606.168 270.004C604.157 268.539 600.905 265.432 601.691 261.504C602.623 256.858 607.43 254.689 609.456 253.971C613.126 252.667 617.155 252.066 621.038 251.48L622.337 251.282C626.953 250.549 631.709 250.044 636.458 249.692C645.773 248.988 655.129 248.988 664.444 249.692C667.343 249.919 670.154 250.256 673.501 250.674L674.668 251.363C680.195 254.623 686.462 258.317 688.672 264.355C691.329 271.631 685.839 278.651 679.321 281.56C675.101 283.444 670.477 284.008 666.917 284.294C662.667 284.642 658.4 284.725 654.139 284.543ZM676.796 248.3L674.411 248.021L672.686 246.995C671.708 246.419 670.729 245.833 669.75 245.237L650.095 233.446C644.767 230.256 639.44 227.056 634.117 223.847L633.273 223.327C639.994 222.672 646.632 221.349 653.09 219.377C657.65 218.051 661.995 216.076 665.992 213.515C665.992 213.603 666.051 213.698 666.088 213.786C667.35 217.299 669.478 220.439 672.275 222.916C679.747 229.562 691.358 232.201 706.771 230.75C710.905 230.324 714.999 229.572 719.013 228.5C718.552 230.134 717.945 231.723 717.201 233.248C714.103 239.711 708.65 244.749 701.956 247.332C693.685 250.366 684.327 249.223 676.796 248.3ZM667.798 208.539C667.563 202.208 671.761 197.46 674.939 194.792C674.263 200.074 671.732 204.945 667.798 208.539ZM667.137 199.863C665.309 203.136 664.637 206.927 665.229 210.628L664.987 210.811C660.994 213.588 656.179 215.706 649.735 217.472C644.278 218.936 638.711 219.96 633.089 220.535C631.842 220.674 630.594 220.791 629.346 220.894C619.805 214.746 608.795 206.04 607.614 193.187C607.046 186.218 609.144 179.293 613.485 173.805C617.603 168.603 623.761 165.012 631.262 163.495C646.3 160.41 661.912 165.855 670.117 177.037C673.14 181.161 674.856 186.095 675.042 191.202C671.79 193.461 669.089 196.421 667.137 199.863ZM707.167 227.943C699.006 228.756 692.151 228.427 686.198 226.917C677.097 224.616 670.624 219.274 668.437 212.262C668.385 212.093 668.341 211.925 668.29 211.756C670.979 209.628 673.206 206.975 674.834 203.958C676.462 200.942 677.457 197.626 677.758 194.213C677.802 193.693 677.824 193.165 677.839 192.638C680.689 190.792 683.834 189.444 687.138 188.652C701.494 185.391 714.654 197.1 718.617 209.821C720.21 214.876 720.577 220.235 719.689 225.459C715.591 226.621 711.406 227.451 707.175 227.943H707.167Z" fill="#00041B"/>
</g>
<g style="mix-blend-mode:multiply">
<path d="M196.98 222.696C192.44 222.706 187.905 222.39 183.41 221.751C179.439 221.172 175.453 220.286 171.6 219.465L169.971 219.106L168.892 218.864L167.754 218.6C167.263 218.226 166.749 217.867 166.213 217.486C168.539 217.817 170.892 217.913 173.237 217.772C177.054 217.516 184.026 216.204 187.865 210.371C191.043 205.549 190.896 199.709 187.512 195.825C183.843 191.627 177.487 190.264 172.378 189.164L171.387 188.952C165.539 187.663 159.588 186.888 153.604 186.636C161.963 185.076 169.751 180.041 169.853 171.351C169.905 165.877 166.8 160.542 161.78 157.428C157.185 154.607 151.16 153.61 144.811 154.636C140.983 155.282 137.298 156.589 133.919 158.498C126.808 157.135 119.451 157.948 112.81 160.828C111.922 161.217 111.055 161.652 110.212 162.132C102.99 155.208 95.5331 151.646 87.4596 151.229C86.8137 151.192 86.1752 151.185 85.5366 151.185C80.0879 151.244 74.7295 152.582 69.8937 155.09C65.058 157.597 60.8803 161.204 57.6977 165.62C53.2254 172.029 50.8022 179.639 50.7471 187.45L50.7031 187.494C50.4095 187.743 50.1233 187.992 49.8444 188.227C45.599 192.1 41.9641 196.591 39.0626 201.548C37.6334 203.996 36.3919 206.549 35.3488 209.184C34.2497 211.746 33.4945 214.441 33.1029 217.201C32.8233 219.12 33.0225 221.078 33.6827 222.902C34.1483 223.714 34.6554 224.501 35.202 225.261C35.3742 225.437 35.5555 225.603 35.7451 225.759C36.413 235.007 40.6112 243.024 44.0315 248.138C46.7901 252.241 49.9547 256.055 53.4775 259.526C53.316 259.826 53.1619 260.134 53.0224 260.456C52.1027 262.697 51.9133 265.171 52.4811 267.525C53.049 269.88 54.3452 271.996 56.1858 273.573C57.0368 274.286 58.0269 274.814 59.0933 275.124C60.1597 275.435 61.279 275.52 62.3803 275.376C63.6927 275.176 64.9523 274.718 66.0862 274.029C67.2201 273.34 68.2057 272.433 68.9859 271.36C69.2355 271.514 69.485 271.653 69.7199 271.8C70.1983 274.554 71.5857 277.069 73.6612 278.944C75.8421 280.871 78.268 282.502 80.876 283.795C84.0027 285.466 87.2394 287.005 90.4835 288.39C96.9987 291.171 103.745 293.377 110.645 294.985C118.719 296.846 125.86 297.432 132.407 296.766C146.352 295.337 157.538 288.155 162.338 277.537C163.503 274.981 164.272 272.264 164.62 269.477C167.496 267.725 170.129 265.604 172.452 263.168C175.571 259.841 179.439 254.374 180.165 247.288C180.502 244.002 179.997 240.684 178.698 237.645C178.698 237.271 178.698 236.912 178.698 236.517C178.617 231.739 176.268 226.771 172.055 222.403C180.214 224.289 188.548 225.316 196.922 225.466L196.98 222.696ZM36.3616 214.819C37.1006 212.139 38.0833 209.531 39.2974 207.03C41.6371 202.093 44.7104 197.537 48.4132 193.517C49.1471 192.711 49.9618 191.898 50.7985 191.099C50.8793 192.11 50.9967 193.121 51.1508 194.125C44.9049 199.431 40.4424 205.322 37.8882 211.631C36.7875 214.35 36.0879 217.213 35.8112 220.132C35.6458 218.342 35.8328 216.537 36.3616 214.819ZM72.553 263.278C72.2814 263.578 72.0318 263.886 71.819 264.194C71.863 263.864 71.8851 263.527 71.9071 263.19C72.1203 263.233 72.336 263.262 72.553 263.278ZM66.6813 269.873C65.6374 271.301 64.0949 272.287 62.3583 272.635C61.3514 272.774 60.3257 272.644 59.3857 272.257C58.4458 271.871 57.6252 271.243 57.0078 270.437C55.5831 268.709 54.844 266.518 54.9307 264.282C54.9712 263.301 55.1953 262.337 55.5912 261.438C59.0119 264.585 62.7115 267.416 66.6446 269.895L66.6813 269.873ZM165.163 201.255C166.543 205.22 166.074 209.851 163.85 214.321C162.536 214.094 161.229 213.83 159.923 213.588L158.455 212.745C157.075 211.947 155.695 211.148 154.338 210.32C149.736 207.479 145.45 204.158 141.552 200.413C143.165 199.357 144.585 198.034 145.75 196.5C147.184 194.577 148.324 192.454 149.134 190.198C150.499 190.542 151.71 190.887 152.804 191.246C159.446 193.4 163.593 196.763 165.163 201.255ZM68.34 257.452C67.8317 256.62 67.4531 255.716 67.2171 254.77C67.6655 255.631 68.0411 256.528 68.34 257.452ZM160.752 237.095C160.557 237.174 160.347 237.214 160.136 237.213C159.818 237.205 159.505 237.133 159.216 237.001C158.927 236.868 158.668 236.679 158.455 236.443C158.096 236.105 157.817 235.692 157.638 235.233C157.459 234.775 157.385 234.282 157.42 233.791C157.483 233.267 157.651 232.761 157.913 232.303C158.175 231.845 158.527 231.444 158.947 231.123C159.822 231.403 160.582 231.96 161.112 232.71C161.641 233.46 161.912 234.361 161.883 235.278C161.898 235.659 161.799 236.036 161.597 236.36C161.396 236.684 161.101 236.94 160.752 237.095ZM136.209 274.79C135.596 275.177 134.938 275.487 134.249 275.713C133.56 275.442 132.939 275.022 132.432 274.484C131.924 273.946 131.542 273.302 131.313 272.599C130.579 270.437 131.277 267.513 133.559 266.604C135.328 265.872 137.912 266.458 138.785 268.378C139.842 270.693 138.264 273.485 136.209 274.79ZM75.4301 251.421C73.375 250.439 70.8942 250.176 67.8336 250.63C67.5327 250.234 67.2098 249.853 66.8795 249.479C67.052 247.699 67.4617 245.949 68.0978 244.277C68.2446 243.91 68.3988 243.544 68.5602 243.207C71.2313 243.048 73.892 242.747 76.531 242.306C78.7329 241.976 80.9861 241.631 83.21 241.477C87.6336 241.128 92.0826 241.278 96.4726 241.924C95.9702 243.365 95.5511 244.833 95.2175 246.321C94.3019 250.553 94.1256 254.911 94.6964 259.203C92.0286 257.768 89.0076 257.117 85.9843 257.327C83.7433 257.465 81.5348 257.932 79.4301 258.712C79.4732 258.519 79.5051 258.323 79.5255 258.126C79.595 256.727 79.2416 255.34 78.5113 254.144C77.7809 252.949 76.7074 252 75.4301 251.421ZM115.834 184.262C115.802 185.535 115.502 186.786 114.953 187.935C114.404 189.084 113.619 190.105 112.649 190.93C113.662 188.095 114.711 185.515 115.834 183.126C115.849 183.493 115.849 183.881 115.834 184.262ZM118.469 181.536C119.988 181.895 121.5 182.269 123.012 182.679C123.9 183.91 124.796 185.142 125.706 186.343C124.809 187.235 124.111 188.305 123.657 189.485C123.203 190.664 123.003 191.926 123.071 193.187C123.112 195.276 123.836 197.293 125.134 198.932C124.928 199.365 124.722 199.819 124.539 200.295C124.128 200.039 123.717 199.804 123.291 199.563C121.211 198.545 118.927 198.012 116.61 198.004C114.293 197.997 112.005 198.514 109.919 199.519C110.396 197.855 110.858 196.324 111.32 194.873C113.456 193.976 115.284 192.476 116.578 190.558C117.873 188.639 118.578 186.385 118.609 184.072C118.63 183.224 118.584 182.376 118.469 181.536ZM131.46 255.73C131.379 256.646 131.233 258.361 130.374 259.108C130.155 259.293 129.875 259.39 129.589 259.379C129.064 259.357 128.555 259.19 128.121 258.896C127.768 258.654 127.504 258.302 127.93 257.371C128.786 255.723 130.03 254.308 131.556 253.246C131.57 254.075 131.538 254.904 131.46 255.73ZM63.3125 203.915C62.755 205.401 62.0877 206.844 61.3161 208.231C61.0372 208.744 60.7436 209.243 60.4354 209.697C60.0243 209.103 59.6207 208.495 59.2317 207.872C60.773 206.531 62.1161 205.22 63.3125 203.915ZM99.9295 266.157C99.6314 264.612 98.9585 263.163 97.9698 261.937C96.9222 257.298 96.8398 252.495 97.7276 247.823C98.0745 245.99 98.5653 244.187 99.1955 242.43C100.201 242.65 101.192 242.899 102.131 243.163C103.225 243.478 104.333 243.896 105.405 244.284C103.45 246.516 101.903 249.073 100.832 251.839C98.6304 257.547 99.2396 263.563 102.454 268.282C105.669 273.002 110.968 276.343 117.53 277.926C119.257 278.328 121.007 278.624 122.77 278.812C122.392 279.368 121.967 279.89 121.5 280.373C120.659 281.276 119.609 281.959 118.442 282.362C117.275 282.766 116.027 282.878 114.807 282.689C112.267 282.279 109.669 280.806 106.931 278.19C103.998 275.379 101.651 272.017 100.025 268.297C100.084 267.583 100.052 266.864 99.9295 266.157ZM97.8891 188.439C99.5111 192.975 103.232 195.767 107.431 195.723C107.673 195.723 107.915 195.723 108.164 195.723C107.607 197.569 107.027 199.599 106.403 201.886C105.364 202.806 104.454 203.861 103.695 205.022C102.739 205.048 101.785 205.131 100.84 205.271C101.273 204.559 101.639 203.808 101.933 203.029C104.194 196.983 100.26 191.715 95.6505 189.355C93.7602 188.404 91.7316 187.756 89.6394 187.435C89.514 184.877 88.6807 182.404 87.2321 180.291C90.5766 179.695 93.9585 179.333 97.3533 179.206C96.7011 182.276 96.8862 185.465 97.8891 188.439ZM66.0281 229.423C66.0207 229.294 66.0207 229.164 66.0281 229.035C66.3421 229.446 66.5897 229.903 66.762 230.391C66.659 230.362 66.5602 230.321 66.4685 230.266C66.2336 230.163 66.0281 229.988 66.0281 229.423ZM112.267 215.317C112.111 215.682 111.88 216.01 111.587 216.279C111.295 216.548 110.949 216.752 110.572 216.878C110.174 217.022 109.754 217.094 109.331 217.091C108.638 217.086 107.953 216.936 107.321 216.65C106.689 216.365 106.124 215.951 105.662 215.435C106.051 214.145 106.396 212.841 106.733 211.536L107.621 208.107C108.608 208.3 109.535 208.724 110.326 209.345C111.117 209.965 111.75 210.764 112.172 211.675C112.679 212.83 112.713 214.137 112.267 215.317ZM102.674 215.962C101.39 219.941 99.8267 222.557 97.6395 224.455C96.7759 225.194 95.8029 225.794 94.7551 226.236C94.3616 225.271 93.6665 224.459 92.7734 223.92C90.8945 222.704 88.6926 222.96 87.1733 223.385C85.265 223.959 83.454 224.816 81.8008 225.928L81.4265 225.803C80.4797 225.481 79.5035 225.071 78.5273 224.675C79.5316 222.163 81.0204 219.872 82.9091 217.933C84.2499 216.478 85.7243 215.15 87.3128 213.969C87.8119 213.837 88.311 213.705 88.7807 213.559C92.1572 212.623 95.2849 210.954 97.9405 208.671C99.3349 208.273 100.762 207.998 102.205 207.85C101.675 209.151 101.439 210.553 101.515 211.955C101.592 213.358 101.977 214.726 102.645 215.962H102.674ZM90.2486 229.995L90.1092 230.119C89.2358 230.852 88.3403 231.651 87.4449 232.391C85.3605 234.113 82.1017 235.022 79.8631 232.948C79.4647 232.581 79.1212 232.159 78.8429 231.695C80.1347 230.618 81.2577 229.746 82.3439 228.984C84.6147 229.655 86.9702 229.998 89.3385 230.002C89.6027 230.017 89.9183 230.01 90.2486 229.995ZM92.1642 226.998C90.0194 227.361 87.8268 227.336 85.6908 226.925C86.7821 226.315 87.9852 225.931 89.2284 225.796C90.2004 225.786 91.1454 226.115 91.9 226.727C91.9934 226.805 92.0749 226.896 92.1422 226.998H92.1642ZM71.9731 219.553C74.0209 217.728 76.5897 216.798 79.0705 216.065C79.8485 215.838 80.6411 215.625 81.4338 215.427C79.4603 217.418 77.8154 219.708 76.5603 222.213C76.3622 222.623 76.1714 223.048 76.0025 223.48C74.2819 222.58 72.6243 221.564 71.041 220.439C71.3419 220.132 71.6502 219.839 71.9731 219.553ZM79.0631 227.892C78.6888 228.185 78.3292 228.5 77.8815 228.844C77.8402 228.357 77.8402 227.866 77.8815 227.379C78.2705 227.569 78.6668 227.731 79.0631 227.892ZM94.1753 191.7C96.9129 193.063 98.8065 195.034 99.4965 197.247C99.8274 198.441 99.8811 199.695 99.6535 200.912C99.4258 202.13 98.9228 203.28 98.1827 204.274C97.7064 204.966 97.1684 205.614 96.5753 206.209C94.0396 206.998 91.5981 208.062 89.2945 209.382C88.199 210.01 87.1359 210.692 86.1091 211.426C85.0375 211.705 83.966 211.969 82.9091 212.218C79.7193 212.865 76.6071 213.847 73.6245 215.149C71.8178 216.039 70.1926 217.256 68.8318 218.739C67.4824 217.643 66.1982 216.468 64.9859 215.222C66.8868 213.8 68.9272 212.489 70.7107 211.353L71.0116 211.162C75.5475 208.283 80.2375 205.3 84.054 201.409C87.1216 198.407 89.0712 194.449 89.5807 190.19C91.1763 190.473 92.7234 190.981 94.1753 191.7ZM76.6925 233.468C77.636 234.936 79.0519 236.04 80.7072 236.597C83.3348 237.44 86.4394 236.707 89.0229 234.641L89.8449 233.996C91.5037 232.699 93.3826 231.233 94.4322 229.394L94.5202 229.225C96.1106 228.74 97.6018 227.976 98.924 226.968C101.187 225.123 102.953 222.743 104.062 220.044C104.304 219.494 104.539 218.908 104.796 218.27C105.679 218.918 106.69 219.372 107.761 219.603C108.832 219.834 109.94 219.837 111.012 219.611C111.91 219.405 112.742 218.979 113.435 218.373C114.128 217.767 114.66 216.999 114.983 216.138C115.391 214.943 115.505 213.668 115.313 212.42C115.121 211.172 114.63 209.989 113.882 208.971C112.534 207.178 110.586 205.928 108.392 205.447L108.942 203.395C110.448 202.265 112.182 201.478 114.024 201.088C115.867 200.698 117.772 200.715 119.607 201.138C121.06 201.513 122.429 202.156 123.644 203.036C122.768 206.571 122.52 210.231 122.91 213.852C121.756 214.181 120.624 214.58 119.519 215.046C116.662 216.235 113.992 217.829 111.592 219.78C110.073 221.011 107.966 222.931 107.056 225.444C102.997 229.406 99.7403 234.11 97.4634 239.301C96.179 239.081 94.8799 238.913 93.5808 238.796C86.9752 238.165 80.3182 238.92 74.1603 239.829C72.9933 240.005 71.5915 240.21 70.1603 240.356C72.0404 237.805 74.2351 235.501 76.6925 233.498V233.468ZM100.282 239.814C101.945 236.145 104.147 232.745 106.814 229.724C107.651 233.388 111.291 236.062 115.093 236.978C114.007 237.516 112.949 238.108 111.922 238.752C110.351 239.731 108.876 240.857 107.519 242.115C105.178 241.148 102.756 240.387 100.282 239.843V239.814ZM109.464 228.822C109.347 228.183 109.367 227.526 109.522 226.895C111.713 224.811 114.113 222.96 116.686 221.37C118.876 220.029 121.173 218.872 123.556 217.911C123.592 218.139 123.644 218.373 123.688 218.6C124.508 222.212 125.51 225.78 126.689 229.291C127.027 230.369 127.372 231.446 127.702 232.53C125.28 233.146 123.255 233.739 121.442 234.37C119.324 234.733 117.155 234.665 115.064 234.172C112.649 233.571 109.985 231.673 109.464 228.859V228.822ZM129.075 212.65L128.29 212.731C127.401 212.833 126.506 212.98 125.625 213.156C125.36 210.483 125.478 207.786 125.978 205.146C127.726 207.168 128.801 209.683 129.053 212.342L129.075 212.65ZM131.974 215.361L132.15 215.325C134.036 215.427 137.214 216.006 137.919 218.666C138.075 219.132 138.114 219.629 138.032 220.113C137.95 220.598 137.75 221.055 137.449 221.443C137.284 221.617 137.085 221.755 136.864 221.849C136.643 221.942 136.405 221.989 136.165 221.986C135.591 221.967 135.032 221.792 134.55 221.48C132.488 220.205 132.084 217.933 131.974 215.398V215.361ZM136.811 199.614C134.176 200.347 130.836 200.207 128.495 198.507C129.45 196.951 130.664 195.568 132.084 194.419L133.273 195.789C134.425 197.078 135.607 198.361 136.811 199.614ZM132.003 212.591H131.835C131.527 208.589 129.74 204.844 126.822 202.083C126.866 201.951 126.91 201.812 126.961 201.68C127.056 201.424 127.152 201.182 127.255 200.948C128.604 201.864 130.146 202.46 131.761 202.692C132.432 202.792 133.109 202.841 133.787 202.838C135.567 202.819 137.328 202.464 138.976 201.79C141.479 204.229 144.131 206.51 146.917 208.62C148.613 209.895 150.396 211.06 152.055 212.108C145.391 211.155 138.614 211.316 132.003 212.584V212.591ZM126.645 196.36C126.089 195.288 125.803 194.096 125.812 192.888C125.821 191.68 126.125 190.493 126.697 189.428C126.878 189.105 127.098 188.805 127.35 188.534C128.348 189.839 129.354 191.099 130.33 192.301C128.92 193.475 127.68 194.838 126.645 196.353V196.36ZM86.821 189.912C86.324 193.754 84.4898 197.3 81.6393 199.929C78.3585 203.139 74.3658 205.681 70.5052 208.143C68.0244 209.726 65.4629 211.338 63.0923 213.17C62.7913 212.811 62.4978 212.438 62.2042 212.093C63.9376 209.454 65.3425 206.615 66.3877 203.637C66.9077 202.139 67.3197 200.606 67.6208 199.05C70.1089 196.346 73.1842 193.378 77.1622 191.722C80.216 190.439 83.5091 189.822 86.821 189.912ZM64.8024 224.235V224.301C63.6743 223.846 62.4401 223.719 61.2427 223.935C59.372 224.268 57.5859 224.968 55.9876 225.994C56.3431 224.97 56.8082 223.987 57.3748 223.063C58.8506 220.737 60.6919 218.663 62.828 216.922C64.1594 218.297 65.5736 219.589 67.063 220.791C66.2227 221.874 65.4762 223.026 64.8317 224.235H64.8024ZM55.1656 229.87L55.8995 229.387L56.127 229.233C58.1014 227.921 61.3748 225.73 63.6868 226.778C63.3973 227.588 63.2436 228.439 63.2317 229.299C63.1865 230.091 63.4004 230.877 63.8412 231.538C64.282 232.199 64.9258 232.699 65.6758 232.963C66.1374 233.141 66.6327 233.215 67.1264 233.179C67.62 233.144 68.0996 233 68.5309 232.757C68.8164 232.566 69.0516 232.31 69.2164 232.009C69.3812 231.707 69.4709 231.371 69.4777 231.028C69.6098 229.116 68.2593 227.232 67.107 225.994L67.0336 225.921C67.2758 225.466 67.54 225.027 67.7676 224.631C68.2161 223.893 68.7062 223.181 69.2355 222.499C70.6837 223.536 72.1881 224.492 73.742 225.364C74.2264 225.635 74.7255 225.899 75.2099 226.155C74.911 227.741 74.9864 229.374 75.4301 230.925L74.4025 231.856C72.6188 233.314 70.9638 234.922 69.4557 236.663C68.4668 237.878 67.5876 239.177 66.8281 240.547C63.2758 240.547 60.5675 239.763 58.5491 238.173C56.1564 236.253 54.9747 233.322 55.1949 229.87H55.1656ZM102.33 257.716C102.616 253.502 104.641 249.172 108.062 245.486C117.082 249.926 123.189 257.393 124.833 266.004C125.539 269.392 125.303 272.91 124.15 276.174C118.058 275.64 113.273 274.115 109.53 271.507C104.693 268.143 101.992 262.977 102.359 257.708L102.33 257.716ZM139.027 197.958C137.471 196.368 135.952 194.697 134.374 192.828C137.508 191.04 141.537 189.897 146.367 189.516C144.811 193.708 142.514 196.705 139.534 198.427L139.027 197.958ZM134.624 189.538C133.897 189.88 133.191 190.264 132.51 190.689C131.57 189.546 130.623 188.358 129.684 187.142C130.811 186.876 131.978 186.819 133.126 186.973C135.057 187.193 136.987 187.545 138.947 187.955C137.484 188.364 136.058 188.89 134.682 189.531L134.624 189.538ZM85.0008 177.902C83.9253 177.037 82.7019 176.374 81.3898 175.945C78.5053 174.993 75.2686 174.978 71.5254 175.945C72.4937 173.77 73.9414 171.841 75.7603 170.303C80.2228 166.566 86.0357 165.848 90.1165 165.84C94.4309 165.898 98.7005 166.722 102.726 168.273C101.606 169.561 100.622 170.96 99.79 172.45C99.0986 173.72 98.5214 175.049 98.0652 176.421C93.6762 176.543 89.3056 177.039 85.0008 177.902ZM77.2062 178.026C78.5438 178.033 79.869 178.282 81.1182 178.759C77.1523 179.783 73.2745 181.121 69.5217 182.76C69.7265 181.523 70.0059 180.299 70.3584 179.096C72.5669 178.367 74.8803 178.006 77.2062 178.026ZM68.7731 189.648C68.8758 188.432 68.9786 187.208 69.1034 185.984C70.4392 185.376 71.797 184.797 73.1401 184.27C76.7516 182.864 80.4667 181.739 84.2522 180.906C85.798 182.638 86.7134 184.841 86.8504 187.157C86.8538 187.171 86.8538 187.186 86.8504 187.201C83.8084 187.086 80.7705 187.518 77.8815 188.476C74.3094 189.754 71.0551 191.786 68.34 194.433C68.5089 192.836 68.641 191.224 68.7731 189.648ZM154.044 224.404C148.04 227.87 140.833 229.533 133.904 231.087C132.693 231.365 131.504 231.636 130.337 231.915C130.051 230.977 129.75 230.039 129.457 229.101C128.113 225.133 127.01 221.088 126.154 216.988C127.174 216.644 128.209 216.329 129.236 216.05C129.246 217.984 129.771 219.881 130.756 221.546C132.077 223.524 134.558 225.261 137.134 224.682C138.284 224.379 139.286 223.674 139.96 222.695C140.633 221.716 140.933 220.528 140.803 219.348C140.747 218.393 140.484 217.462 140.031 216.62C139.579 215.777 138.948 215.043 138.183 214.467C143.287 214.002 148.43 214.212 153.479 215.09C155.196 215.383 156.943 215.75 158.617 216.101L158.954 216.175C159.872 216.71 160.774 217.259 161.677 217.816C161.435 218.139 161.163 218.468 160.877 218.813C158.126 220.01 155.76 221.945 154.044 224.404ZM127.996 184.834L127.211 183.779L129.412 184.35C128.927 184.468 128.452 184.63 127.996 184.834ZM109.089 192.748C107.888 193.074 106.621 193.074 105.419 192.748C99.79 191.121 99.2029 183.559 100.194 179.155C102.921 179.16 105.646 179.321 108.355 179.638C110.139 179.851 112.025 180.144 113.992 180.547C112.065 184.491 110.427 188.568 109.089 192.748ZM59.0996 244.042C58.6885 243.866 58.2261 243.69 57.7417 243.507C52.8536 241.617 48.582 239.572 50.0646 235.351C50.5729 234.061 51.3862 232.912 52.4352 232.003C52.5588 233.351 52.8957 234.672 53.4334 235.916C55.305 240.232 59.7161 242.877 65.5657 243.2C65.4262 243.559 65.2868 243.932 65.162 244.284C64.8531 245.219 64.6079 246.174 64.4281 247.142C62.8126 245.855 61.0175 244.811 59.0996 244.042ZM110.242 243.405C113.561 240.658 117.361 238.549 121.449 237.183C123.1 236.986 124.759 236.648 126.352 236.319L128.664 235.857C128.906 236.729 129.134 237.601 129.339 238.488C130.273 242.294 130.944 246.16 131.35 250.058C130.861 250.395 130.398 250.74 129.963 251.092C128.348 252.367 125.163 254.887 124.935 257.818C121.945 252.276 117.507 247.647 112.091 244.423C111.533 244.072 110.887 243.742 110.242 243.405ZM73.4998 253.605C74.2503 253.874 74.9302 254.308 75.4882 254.877C76.0463 255.446 76.4681 256.133 76.7218 256.888C76.8465 257.315 76.8558 257.768 76.7488 258.201C76.6419 258.633 76.4224 259.029 76.1126 259.35C75.7462 259.738 75.3019 260.045 74.8087 260.251C74.3156 260.457 73.7846 260.557 73.2502 260.544C72.7531 260.546 72.2585 260.474 71.7823 260.332C71.5965 258.663 71.1867 257.026 70.5639 255.466C70.2523 254.682 69.892 253.919 69.485 253.18C70.8383 253.051 72.2038 253.195 73.4998 253.605ZM118.403 178.686L118.161 178.627C118.455 178.122 118.748 177.623 119.049 177.162L120.517 179.228L118.403 178.686ZM61.1546 183.302C63.1028 182.158 65.1201 181.135 67.1951 180.239C66.9309 181.441 66.718 182.731 66.5419 184.167C65.3455 184.746 64.2593 185.31 63.2391 185.874C59.905 187.695 56.7152 189.767 53.6976 192.074C53.5729 190.96 53.4995 189.831 53.4701 188.703C55.8684 186.685 58.4371 184.878 61.1473 183.302H61.1546ZM66.2116 187.377L66.0354 189.575C65.9767 190.396 65.9107 191.209 65.8373 192.022C65.6778 193.96 65.4108 195.888 65.0373 197.797C64.5015 198.383 63.973 198.984 63.4446 199.592L63.2317 199.841C61.5585 201.842 59.7747 203.747 57.8885 205.549C57.6683 205.139 57.4555 204.729 57.25 204.318C55.8268 201.416 54.7952 198.339 54.1821 195.166C57.902 192.156 61.9292 189.545 66.1969 187.377H66.2116ZM52.56 213.427C54.0646 212.232 55.6279 210.994 57.1326 209.763C57.6512 210.584 58.209 211.397 58.806 212.203C56.4772 215.394 53.6321 218.175 50.3875 220.432C48.4719 221.766 42.0571 225.891 38.4094 224.265C38.4094 224.103 38.4094 223.942 38.4094 223.774C42.5268 221.575 46.292 218.52 49.6315 215.816C50.615 215.002 51.5618 214.211 52.5453 213.427H52.56ZM86.0724 260.105C88.4871 259.973 91.944 260.229 94.4835 262.347C94.8419 262.647 95.1779 262.973 95.4891 263.322C95.943 265.173 96.5417 266.986 97.2799 268.744C97.2799 268.92 97.2212 269.096 97.1772 269.272C96.8081 270.441 96.1825 271.514 95.3457 272.411C94.509 273.309 93.4823 274.009 92.3404 274.46C89.7936 275.588 86.5862 275.618 82.799 274.54C79.1595 273.469 75.657 271.979 72.3621 270.1C72.4093 269.188 72.6337 268.295 73.0227 267.469C75.3346 262.472 81.4925 260.383 86.0577 260.105H86.0724ZM152.334 272.467C149.63 273.582 146.872 274.56 144.07 275.398C142.309 275.92 140.494 276.235 138.66 276.336C139.613 275.509 140.389 274.499 140.941 273.365C141.494 272.232 141.811 270.999 141.875 269.741C141.899 268.704 141.647 267.68 141.146 266.773C140.644 265.865 139.911 265.107 139.02 264.575C137.947 263.88 136.704 263.494 135.425 263.458C134.147 263.423 132.884 263.74 131.775 264.374C130.665 265.009 129.752 265.936 129.136 267.055C128.52 268.174 128.225 269.44 128.282 270.715C128.264 272.807 129.077 274.82 130.543 276.314C129.493 276.38 128.495 276.358 127.68 276.314H127.034C127.432 275.123 127.71 273.896 127.864 272.65C128.328 268.71 127.825 264.716 126.396 261.013C127.189 261.619 128.148 261.97 129.145 262.019C130.143 262.069 131.132 261.815 131.981 261.292C134.682 259.233 134.418 254.748 134.249 251.766V251.355L135.343 250.703C137.948 249.186 141.868 247.164 145.618 247.332C150.293 247.523 155.16 250.388 158.404 254.807C161.095 258.563 162.409 263.13 162.125 267.74L161.391 268.158C158.469 269.8 155.438 271.24 152.319 272.467H152.334ZM172.342 245.852C168.114 249.89 161.457 248.388 157.728 244.672C155.958 242.88 154.682 240.66 154.026 238.229C153.37 235.798 153.356 233.239 153.985 230.801C154.572 230.728 155.123 230.676 155.637 230.662C155.284 231.191 155.009 231.769 154.822 232.376C154.512 233.585 154.571 234.858 154.991 236.033C155.411 237.208 156.172 238.231 157.178 238.971C158.092 239.726 159.263 240.097 160.445 240.008C161.627 239.92 162.729 239.377 163.519 238.495C165.156 236.605 164.818 233.908 164.033 232.179C163.613 231.227 162.98 230.385 162.184 229.716C163.528 229.485 164.906 229.525 166.235 229.834C170.242 230.75 173.839 233.82 175.894 238.055C175.696 241.002 174.428 243.774 172.327 245.852H172.342ZM101.023 176.4C101.995 173.817 103.463 171.45 105.346 169.431C108.539 171.014 112.495 173.703 114.521 177.858C110.072 176.981 105.556 176.493 101.023 176.4ZM42.3434 227.159C45.4627 226.639 48.3765 224.961 50.571 223.59C52.9898 222.05 55.2298 220.246 57.25 218.212C58.4312 217.021 59.5345 215.756 60.5528 214.423C60.6849 214.577 60.817 214.738 60.9565 214.892C59.0236 216.517 57.2981 218.372 55.8188 220.417C54.1254 222.786 53.0004 225.511 52.5307 228.383C50.7545 229.716 48.648 231.556 47.6058 234.04C47.124 235.185 46.9472 236.436 47.0925 237.67C47.2379 238.904 47.7004 240.079 48.4352 241.082C49.8444 242.972 51.9875 244.079 53.8885 244.907C54.6738 245.251 55.4738 245.559 56.2738 245.867C57.8172 246.419 59.3142 247.093 60.751 247.882C61.9474 248.594 63.0496 249.453 64.0317 250.439C64.0317 250.791 64.0317 251.135 64.0317 251.487C60.5451 252.484 57.4175 254.458 55.0188 257.174C49.7542 252.03 45.432 246.006 42.2479 239.374C40.3766 235.5 39.1377 231.351 38.5782 227.086C39.8157 227.361 41.096 227.386 42.3434 227.159ZM57.9546 258.09C59.7689 256.352 61.9585 255.053 64.3547 254.294C64.7591 256.731 65.8719 258.997 67.5547 260.808C68.0345 261.309 68.5715 261.752 69.1547 262.127C69.202 263.987 68.8334 265.835 68.0758 267.535C67.4446 267.132 66.8134 266.722 66.1969 266.311C62.971 264.139 59.9139 261.726 57.0518 259.093C57.333 258.742 57.6344 258.406 57.9546 258.09ZM90.8945 277.794C92.5513 277.468 94.121 276.798 95.5017 275.827C96.8824 274.856 98.0434 273.606 98.9093 272.159C100.182 274.473 101.721 276.63 103.497 278.585C106.616 282.007 112.84 287.379 119.46 284.982C122.262 283.882 124.549 281.772 125.867 279.069C126.462 279.069 127.056 279.135 127.644 279.15C129.837 279.266 132.035 279.076 134.176 278.585C135.74 279.054 137.376 279.235 139.005 279.12C141.712 278.926 144.378 278.351 146.925 277.413C150.345 276.226 153.361 275.061 156.136 273.866C158.117 273.009 159.908 272.152 161.596 271.25C158.866 283.92 147.453 290.852 137.515 293.124C134.143 293.884 130.697 294.275 127.24 294.289C118.616 294.34 108.891 292.31 97.39 288.097C91.1245 285.921 85.097 283.115 79.4008 279.721C77.5879 278.6 74.5787 276.424 73.1475 273.566C78.6301 276.38 84.854 278.988 90.8798 277.794H90.8945ZM141.046 245.295C138.557 246.007 136.171 247.04 133.948 248.366C133.57 245.302 133.039 242.26 132.356 239.25C132.091 238.048 131.768 236.758 131.365 235.315L148.752 231.856L150.301 231.526L151.035 231.372C150.567 234.055 150.731 236.81 151.511 239.42C152.292 242.029 153.669 244.422 155.534 246.409C156.928 247.858 158.595 249.017 160.439 249.821C162.283 250.624 164.267 251.056 166.279 251.092C168.188 251.089 170.067 250.613 171.747 249.707C174.307 248.263 176.304 245.999 177.413 243.28C177.837 247.721 176.807 252.18 174.477 255.986C172.065 260.007 168.791 263.445 164.892 266.055C164.869 264.093 164.583 262.144 164.04 260.259C162.485 254.933 159.011 250.37 154.286 247.45C152.349 246.189 150.169 245.346 147.886 244.975C145.604 244.604 143.269 244.713 141.031 245.295H141.046ZM175.05 231.995C170.976 227.635 165.2 225.803 160.371 227.328C159.726 227.532 159.101 227.797 158.506 228.119C157.373 227.945 156.223 227.901 155.079 227.987C155.389 227.39 155.74 226.815 156.128 226.265C157.58 225.397 158.962 224.417 160.261 223.334C161.041 222.664 161.776 221.945 162.462 221.18C162.771 221.071 163.091 221.002 163.417 220.974C164.458 220.917 165.503 220.986 166.529 221.18C170.881 224.572 173.677 228.112 175.064 232.01L175.109 232.127L175.05 231.995ZM168.327 209.748C169.384 204.26 168.129 199.116 164.796 195.269C162.466 192.712 159.554 190.754 156.305 189.56L157.295 189.633C164.507 190.144 171.633 191.496 178.529 193.664C180.848 194.397 183.755 195.576 185.641 197.848C186.454 198.876 187.013 200.082 187.272 201.367C187.531 202.652 187.482 203.979 187.131 205.242C185.619 211.5 179.476 214.343 174.22 214.922C173.321 215.018 172.417 215.07 171.512 215.076C169.909 215.079 168.308 214.974 166.719 214.76C167.447 213.158 167.981 211.476 168.312 209.748H168.327ZM147.805 184.401C144.852 184.383 141.906 184.113 138.998 183.595C134.469 182.863 129.948 181.654 125.581 180.503L124.634 180.261L123.622 178.84C122.623 177.44 121.633 176.04 120.627 174.655C124.133 169.324 128.765 164.822 134.198 161.465C137.864 162.266 141.229 164.082 143.908 166.705C149.178 172.127 148.613 180.107 147.805 184.401ZM118.91 172.281C117.838 170.816 116.899 169.636 115.974 168.493C114.748 166.976 113.508 165.562 112.26 164.235C117.403 161.607 123.152 160.391 128.921 160.711C129.354 160.711 129.787 160.769 130.227 160.813C125.847 163.987 122.023 167.862 118.91 172.281ZM116.546 175.872C114.675 172.596 111.541 169.717 107.408 167.474C108.183 166.817 108.997 166.208 109.845 165.65C110.454 166.295 111.049 166.947 111.636 167.614C113.376 169.592 115.174 171.849 117.28 174.692L116.546 175.872ZM104.708 166.163C101.602 164.822 98.3316 163.898 94.9826 163.415C85.4852 162.081 73.6465 164.382 68.9052 174.89C68.5936 175.577 68.3168 176.279 68.0758 176.993C66.7914 177.462 65.4336 178.034 63.9363 178.737C60.2483 180.459 56.7648 182.588 53.5509 185.083C53.9092 180.451 55.155 175.931 57.2206 171.768C59.673 166.831 63.3581 162.608 67.9205 159.506C72.4829 156.403 77.7688 154.527 83.2687 154.057C88.723 153.594 94.1969 154.684 99.0561 157.201C102.279 158.92 105.244 161.083 107.864 163.627C106.751 164.394 105.696 165.241 104.708 166.163ZM52.3912 210.034C51.2976 210.884 50.1893 211.741 49.1324 212.613L48.1269 213.441C45.1053 216.049 41.8885 218.423 38.5048 220.542C39.1551 214.981 41.2613 209.688 44.6113 205.198C46.7093 202.305 49.1053 199.641 51.76 197.247C51.9361 197.98 52.1343 198.713 52.3545 199.445C53.2042 202.205 54.3432 204.868 55.7527 207.389C54.6298 208.283 53.5068 209.14 52.3912 210.034ZM156.862 183.016C154.85 183.681 152.766 184.102 150.653 184.27C150.89 182.815 151.032 181.346 151.079 179.873C151.306 173.329 149.171 167.679 145.068 163.972C142.946 162.075 140.479 160.603 137.802 159.634C138.921 159.127 140.071 158.689 141.244 158.322C147.578 156.329 154.037 156.593 158.969 159.055C163.901 161.517 168.099 167.115 166.91 173.197C165.685 179.419 159.475 182.137 156.862 183.016Z" fill="#00041B"/>
</g>
<g style="mix-blend-mode:multiply">
<path d="M745.891 221.597C775.339 214.859 805.849 214.149 835.58 219.509C850.435 222.213 864.938 226.624 879.816 229.115C894.577 231.582 909.535 232.681 924.499 232.398C938.949 232.214 953.336 230.459 967.406 227.166C981.27 223.796 994.834 219.399 1008.79 216.468C1023.64 213.331 1038.94 212.071 1054.08 211.338C1069.49 210.606 1084.99 210.606 1100.45 210.796C1131.24 211.243 1162.1 212.547 1192.83 210.466C1196.75 210.202 1200.66 209.88 1204.58 209.499C1206.5 209.316 1206.52 206.282 1204.58 206.473C1173.75 209.462 1142.7 208.561 1111.75 207.938C1081.01 207.345 1050.09 207.147 1019.62 211.5C1005.42 213.522 991.729 217.582 977.901 221.333C963.641 225.202 949.424 228.068 934.649 228.962C919.552 229.892 904.399 229.402 889.394 227.496C874.186 225.547 859.507 221.509 844.571 218.241C815.524 211.877 785.509 211.262 756.225 216.431C752.496 217.091 748.792 217.843 745.113 218.688C743.212 219.128 744.012 222.044 745.92 221.619L745.891 221.597Z" fill="#00041B"/>
</g>
</g>
</g>
<g style="mix-blend-mode:multiply">
<path d="M221.217 185.466C216.183 171.8 207.922 159.553 197.139 149.765C186.317 139.841 174.939 132.119 163.004 126.6C151.07 121.08 140.694 117.255 131.877 115.125C65.5956 99.171 23.1622 129.498 4.57701 206.106C-4.86624 245.016 0.302934 273.51 20.0845 291.588C39.8661 309.666 60.8069 321.351 82.9068 326.644C94.7131 329.488 108.071 329.04 122.98 325.302C138.036 321.525 152.468 315.598 165.833 307.704C179.357 299.78 191.355 289.5 201.261 277.352C211.088 265.431 218.081 251.435 221.714 236.419C226.592 216.315 226.426 199.328 221.217 185.457" fill="#FFD7E7"/>
</g>
<g style="mix-blend-mode:multiply">
<path d="M734.324 116.697C742.213 95.2818 755.158 76.0883 772.057 60.7494C789.016 45.1978 806.848 33.0969 825.551 24.4467C844.254 15.7965 860.514 9.80221 874.331 6.4637C978.203 -18.5377 1044.7 28.9892 1073.83 149.044C1088.63 210.021 1080.53 254.675 1049.52 283.005C1018.52 311.336 985.708 329.648 951.074 337.943C932.572 342.399 911.639 341.698 888.274 335.839C864.68 329.92 842.062 320.632 821.118 308.262C799.923 295.843 781.121 279.734 765.598 260.695C750.197 242.014 739.238 220.08 733.545 196.548C725.901 165.043 726.16 138.421 734.324 116.683" fill="#FFE5BA"/>
</g>
<defs>
<clipPath id="clip0_91_2">
<rect width="1173" height="167" fill="white" transform="translate(33 130)"/>
</clipPath>
</defs>
</svg>
